<?xml version="1.0" encoding="UTF-8" standalone="no"?>
<!-- Generator: Adobe Illustrator 16.0.4, SVG Export Plug-In . SVG Version: 6.00 Build 0)  -->

<svg
   version="1.1"
   id="Ebene_1"
   x="0px"
   y="0px"
   width="198.425px"
   height="198.425px"
   viewBox="0 0 198.425 198.425"
   enable-background="new 0 0 198.425 198.425"
   xml:space="preserve"
   sodipodi:docname="GSBcleanR_Icon.svg"
   inkscape:version="1.1.2 (0a00cf5339, 2022-02-04)"
   inkscape:export-filename="/home/ftom/hdd2/softDevel/GBScleanR/inst/GSBcleanR_Icon.png"
   inkscape:export-xdpi="139.33237"
   inkscape:export-ydpi="139.33237"
   xmlns:inkscape="http://www.inkscape.org/namespaces/inkscape"
   xmlns:sodipodi="http://sodipodi.sourceforge.net/DTD/sodipodi-0.dtd"
   xmlns:xlink="http://www.w3.org/1999/xlink"
   xmlns="http://www.w3.org/2000/svg"
   xmlns:svg="http://www.w3.org/2000/svg"
   xmlns:rdf="http://www.w3.org/1999/02/22-rdf-syntax-ns#"
   xmlns:cc="http://creativecommons.org/ns#"
   xmlns:dc="http://purl.org/dc/elements/1.1/"><metadata
   id="metadata135"><rdf:RDF><cc:Work
       rdf:about=""><dc:format>image/svg+xml</dc:format><dc:type
         rdf:resource="http://purl.org/dc/dcmitype/StillImage" /><dc:title /></cc:Work></rdf:RDF></metadata><defs
   id="defs133"><inkscape:path-effect
   effect="bend_path"
   id="path-effect1176"
   is_visible="true"
   bendpath="m 108.66921,-29.428938 h 12.29647"
   prop_scale="1.0032739"
   scale_y_rel="false"
   vertical="false" /><inkscape:path-effect
   effect="bend_path"
   id="path-effect1122"
   is_visible="true"
   bendpath="m 89.38789,83.651101 c 18.88132,24.729039 55.21808,33.431689 81.82784,8.651574"
   prop_scale="1"
   scale_y_rel="false"
   vertical="false"
   bendpath-nodetypes="cc" />
	
	
	

		
		
		
		
		
		
		
		
		
		
		
		
		
		
		
		
		
		
		
		
		
		
		
		
		
		
		
		
		
			
		
			
		
			
		
			
		
			
		
		
			
		
			
		
			
		
			
		
			
		
		
		
		
		
		
		
		
		
		
		
		
		
		
		
		
		
	
		<defs
   id="defs3">
			<polygon
   id="SVGID_1_"
   points="36.713,135.213 36.713,63.212 99.213,27.212 161.713,63.212 161.713,135.213 99.213,171.213 " />
		</defs>
		<clipPath
   id="SVGID_2_">
			<use
   xlink:href="#SVGID_1_"
   overflow="visible"
   id="use5"
   style="overflow:visible"
   x="0"
   y="0"
   width="100%"
   height="100%" />
		</clipPath>
		
	<inkscape:path-effect
   effect="bend_path"
   id="path-effect1176-3"
   is_visible="true"
   bendpath="m 108.66921,-29.428938 h 12.29647"
   prop_scale="1.0032739"
   scale_y_rel="false"
   vertical="false" /><inkscape:path-effect
   effect="bend_path"
   id="path-effect1176-3-1"
   is_visible="true"
   bendpath="m 108.66921,-29.428938 h 12.29647"
   prop_scale="1.0032739"
   scale_y_rel="false"
   vertical="false" /><inkscape:path-effect
   effect="bend_path"
   id="path-effect1176-3-1-8"
   is_visible="true"
   bendpath="m 108.66921,-29.428938 h 12.29647"
   prop_scale="1.0032739"
   scale_y_rel="false"
   vertical="false" /></defs><sodipodi:namedview
   pagecolor="#ffffff"
   bordercolor="#666666"
   borderopacity="1"
   objecttolerance="10"
   gridtolerance="10"
   guidetolerance="10"
   inkscape:pageopacity="0"
   inkscape:pageshadow="2"
   inkscape:window-width="1864"
   inkscape:window-height="1016"
   id="namedview131"
   showgrid="false"
   inkscape:zoom="2.3787325"
   inkscape:cx="7.5670551"
   inkscape:cy="100.68387"
   inkscape:window-x="1976"
   inkscape:window-y="27"
   inkscape:window-maximized="1"
   inkscape:current-layer="Ebene_1"
   inkscape:pagecheckerboard="0" />
<polygon
   clip-path="url(#SVGID_2_)"
   points="164.548,136.852 99.212,174.484 33.878,136.852 33.878,61.574 99.212,23.94 164.548,61.574 "
   id="polygon8"
   style="fill:#767676;fill-opacity:1" /><polygon
   style="fill:none;stroke:#ffffff;stroke-width:2;stroke-miterlimit:10"
   id="polygon12"
   points="40.712,133.045 40.712,65.378 99.212,31.545 157.713,65.378 157.713,133.045 99.212,166.879 "
   stroke-miterlimit="10" />
<text
   xml:space="preserve"
   style="font-style:normal;font-variant:normal;font-weight:normal;font-stretch:normal;font-size:46.29785538px;line-height:1.25;font-family:Keraleeyam;-inkscape-font-specification:'Keraleeyam, Normal';font-variant-ligatures:normal;font-variant-caps:normal;font-variant-numeric:normal;font-feature-settings:normal;text-align:start;letter-spacing:0px;word-spacing:0px;writing-mode:lr-tb;text-anchor:start;fill:#ffffff;fill-opacity:1;stroke:none;stroke-width:1.15744638"
   x="42.820076"
   y="104.13145"
   id="text1069"><tspan
     sodipodi:role="line"
     id="tspan1067"
     x="42.820076"
     y="104.13145"
     style="stroke-width:1.15744638">GBS</tspan></text>
<text
   xml:space="preserve"
   style="font-style:normal;font-variant:normal;font-weight:normal;font-stretch:normal;font-size:71.77046967px;line-height:1.25;font-family:C059;-inkscape-font-specification:'C059, Normal';font-variant-ligatures:normal;font-variant-caps:normal;font-variant-numeric:normal;font-feature-settings:normal;text-align:start;letter-spacing:0px;word-spacing:0px;writing-mode:lr-tb;text-anchor:start;fill:#ffffff;fill-opacity:1;stroke:none;stroke-width:1.79426563"
   x="102.6619"
   y="126.83858"
   id="text1069-2"><tspan
     sodipodi:role="line"
     id="tspan1089"
     x="102.6619"
     y="126.83858"
     style="font-style:normal;font-variant:normal;font-weight:normal;font-stretch:normal;font-size:71.77046967px;font-family:C059;-inkscape-font-specification:'C059, Normal';font-variant-ligatures:normal;font-variant-caps:normal;font-variant-numeric:normal;font-feature-settings:normal;text-align:start;writing-mode:lr-tb;text-anchor:start;stroke-width:1.79426563">R</tspan></text>
<g
   aria-label="clean"
   transform="matrix(0.65645076,0.30451538,-0.30451538,0.65645076,22.957077,25.404778)"
   style="font-style:normal;font-variant:normal;font-weight:normal;font-stretch:normal;font-size:46.29733276px;line-height:1.25;font-family:Keraleeyam;-inkscape-font-specification:'Keraleeyam, Normal';font-variant-ligatures:normal;font-variant-caps:normal;font-variant-numeric:normal;font-feature-settings:normal;text-align:start;letter-spacing:0px;word-spacing:0px;writing-mode:lr-tb;text-anchor:start;fill:#ffffff;fill-opacity:1;stroke:none;stroke-width:1.15744638"
   id="text1069-9"
   inkscape:path-effect="#path-effect1122"><path
     d="m 90.822593,100.56865 c 1.869563,1.63198 3.837182,2.75671 5.790273,3.38153 l -2.542762,3.52422 c -2.214256,-0.94111 -4.376741,-2.30817 -6.395053,-4.09484 -3.748877,-3.31863 -5.526207,-6.841855 -5.558795,-9.889576 -0.02143,-3.100225 1.404974,-5.534551 3.957279,-7.474978 2.549067,-1.937964 5.264451,-2.65524 7.987241,-2.467499 2.772537,0.180596 5.207897,1.414827 7.749184,3.674378 1.32537,1.17844 2.51399,2.507129 3.64267,4.042287 l -2.42572,3.329717 c -0.97297,-1.419982 -1.93178,-2.552358 -2.96008,-3.426572 -1.955691,-1.662649 -3.652271,-2.601582 -5.315123,-2.745933 -1.629517,-0.152817 -3.326567,0.487324 -5.018767,2.028976 -3.120804,2.843158 -3.14686,6.420166 1.089653,10.11829 z"
     id="path1111"
     inkscape:connector-curvature="0"
     inkscape:original-d="m 100.44389,95.525873 q 2.55449,0 4.58904,-0.949457 v 4.340374 q -2.30582,0.791215 -4.92813,0.791215 -4.860317,0 -7.256566,-2.91619 -2.396249,-2.938795 -2.396249,-7.753899 0,-4.815103 2.464068,-7.776505 2.464067,-2.984008 7.075715,-2.984008 2.396252,0 4.815102,0.859033 v 4.114314 q -2.01194,-0.859033 -3.7074,-0.859033 -3.232677,0 -4.769893,1.627641 -1.537217,1.605034 -1.537217,5.041164 0,6.465351 5.65153,6.465351 z" /><path
     d="m 101.52671,112.57349 c -2.021468,-1.1073 -3.987849,-2.30752 -5.892815,-3.59506 L 111.95571,84.942652 c 1.16528,0.797535 2.36293,1.540655 3.58663,2.223774 z"
     id="path1113"
     inkscape:connector-curvature="0"
     inkscape:original-d="m 110.93313,99.255882 h -4.49862 V 70.229625 h 4.49862 z" /><path
     d="m 127.96624,120.36512 c -0.85883,0.11507 -1.73431,0.18559 -2.62345,0.20999 -2.26678,0.0246 -4.58448,-0.25439 -6.89367,-0.84316 -5.71984,-1.4584 -9.3166,-4.05384 -10.77443,-6.7435 -1.48293,-2.76129 -1.27559,-5.59223 0.22432,-8.48934 1.49966,-2.89664 3.65895,-4.73099 6.18745,-5.728921 2.56828,-1.02494 5.11608,-1.033409 8.01078,-0.197365 2.58072,0.745361 4.51187,1.814076 5.96668,3.474196 0.18375,0.21442 0.35967,0.43779 0.52775,0.67044 1.46282,2.0248 2.27881,4.4127 2.07392,7.23995 -0.0783,1.08057 -0.19748,1.8966 -0.36565,2.45875 -1.23426,-0.0894 -2.46858,-0.22023 -3.70107,-0.39362 -4.76043,-0.71612 -9.39243,-1.99787 -13.81479,-3.77358 -1.03996,2.5829 0.0526,4.93649 3.78548,6.55954 1.06403,0.46337 2.18551,0.84275 3.35553,1.13125 1.98791,0.49017 4.01026,0.68942 6.01118,0.59442 0,0 0,0 0,0 0.83004,-0.0493 1.65131,-0.14873 2.46015,-0.29744 z m -2.55393,-12.06464 c 0.25444,-1.42271 -0.0859,-2.63503 -0.92764,-3.65276 -0.84373,-1.0386 -1.98829,-1.73524 -3.48975,-2.16851 -1.48484,-0.42848 -2.8306,-0.46436 -4.12125,-0.0744 -1.28293,0.38761 -2.23584,1.24011 -2.79199,2.62139 3.6495,1.46783 7.44443,2.57519 11.33063,3.2743 z"
     id="path1115"
     inkscape:connector-curvature="0"
     inkscape:original-d="m 128.81457,98.645517 q -2.87098,1.062488 -6.01323,1.062488 -5.62892,0 -8.11559,-2.825765 -2.48668,-2.848371 -2.48668,-7.753899 0,-4.905528 2.46407,-7.86693 2.46407,-2.984008 6.62359,-2.984008 4.18213,0 6.46535,2.735341 2.28322,2.73534 2.28322,7.007897 0,1.62764 -0.13564,2.486673 h -13.22458 q 0,4.24995 4.06911,4.95074 1.17551,0.203455 2.39624,0.203455 2.91619,0 5.67414,-1.175518 z m -2.9388,-11.619545 q 0,-2.170188 -1.28854,-3.413524 -1.28855,-1.265943 -3.27789,-1.265943 -1.96673,0 -3.30049,1.22073 -1.33377,1.220731 -1.33377,3.458737 z" /><path
     d="m 134.35381,101.42737 c 2.00386,-0.65588 3.82636,-1.11273 5.63771,-1.34678 3.42953,-0.443136 5.97246,-0.513166 8.00298,0.23085 1.98535,0.70404 3.59065,2.37792 4.58432,5.1637 l 4.29895,12.05222 c -2.1213,0.74821 -4.28135,1.39338 -6.47234,1.93141 -0.19134,-0.57161 -0.38148,-1.14354 -0.57041,-1.7158 -1.01802,1.67211 -3.38522,2.96222 -7.03878,3.42767 -4.98473,0.63503 -8.39134,-0.60483 -9.87183,-2.88686 -0.57625,-0.85514 -0.81659,-1.95754 -0.76319,-3.30884 0.18155,-4.5949 4.33825,-6.14136 11.63745,-7.45251 1.32707,-0.24107 2.42042,-0.43591 3.36954,-0.56044 l -0.18392,-0.74352 c -0.55375,-2.23863 -2.73598,-2.6915 -6.51703,-2.20828 -1.59894,0.20435 -3.49734,0.79961 -6.11924,1.64598 0.002,-1.4096 0.004,-2.8192 0.006,-4.2288 z m 10.95379,9.13043 c -4.78359,0.94573 -7.27673,2.01593 -7.12611,4.32913 0.0967,1.48496 1.13861,2.32208 3.18793,2.33312 0.69995,0.011 1.5204,-0.0554 2.4482,-0.21207 2.86616,-0.43728 4.57864,-1.49936 5.12482,-2.87324 l -0.99532,-4.02373 c -0.77298,0.0969 -1.64398,0.24997 -2.63952,0.44679 z"
     id="path1117"
     inkscape:connector-curvature="0"
     inkscape:original-d="m 132.83846,79.317285 q 2.73534,-0.994669 5.26723,-0.994669 4.7925,0 7.05311,1.92152 2.28322,1.898914 2.28322,6.352319 v 12.81767 h -4.31777 l -0.0904,-1.808489 q -1.37897,2.102369 -4.86031,2.102369 -4.72468,0 -6.2619,-3.436131 -0.58776,-1.265942 -0.58776,-3.300493 0,-6.691411 9.01984,-6.668805 1.58243,0 2.69013,0.158243 v -0.768608 q 0,-3.390918 -4.95074,-3.390918 -2.01194,0 -5.24462,1.265942 z m 8.20602,10.263178 q -5.51589,0 -5.51589,3.390918 0,2.260612 2.03455,2.62231 0.70079,0.135637 1.65025,0.11303 2.91619,0 3.82043,-1.831095 V 89.7161 q -0.85903,-0.135637 -1.98934,-0.135637 z" /><path
     d="m 168.3548,97.346166 c -1.95717,-2.563581 -4.17907,-2.761998 -6.78357,-1.118866 -1.35257,0.853311 -2.24541,1.797432 -2.69283,2.929095 -0.43473,1.100205 -0.3188,2.393715 0.41983,3.858525 l 5.5267,10.96041 c -1.96151,0.98452 -3.96974,1.87559 -6.01736,2.66937 l -7.41394,-18.944735 c 1.43165,-0.563449 2.83941,-1.19426 4.21619,-1.888697 0.47269,0.976861 0.9444,1.954195 1.41514,2.931999 -0.21187,-1.293474 0.0536,-2.517161 0.73733,-3.694408 0.68613,-1.181435 1.55045,-2.1097 2.6459,-2.837394 4.15077,-2.757308 7.98026,-2.776307 11.86924,1.419105 l 8.56006,9.23454 c -1.61167,1.49628 -3.29106,2.91142 -5.03094,4.24163 -2.48392,-3.25353 -4.96784,-6.50705 -7.45175,-9.760574 z"
     id="path1119"
     inkscape:connector-curvature="0"
     inkscape:original-d="m 161.34478,86.980759 q 0,-4.792497 -4.00128,-4.792497 -2.03455,0 -3.18747,1.175518 -1.1303,1.152912 -1.1303,3.616979 v 12.275123 h -4.22735 V 78.887769 h 4.18213 l -0.0452,3.255281 q 0.49734,-1.876308 2.07977,-2.91619 1.58242,-1.039881 3.39091,-1.039881 7.14354,0 7.14354,8.477295 v 12.591608 h -4.20474 z" /></g><path
   style="fill:none;stroke:#ffffff;stroke-width:1px;stroke-linecap:butt;stroke-linejoin:miter;stroke-opacity:1"
   d="M 52.912637,68.224246 H 65.397641"
   id="path1167"
   inkscape:connector-curvature="0" /><path
   transform="matrix(0.19281672,0.19281672,-0.19281672,0.19281672,66.145605,49.958706)"
   style="opacity:1;fill:#ffffff;fill-opacity:1;stroke:#f8ffff;stroke-width:0.5;stroke-linejoin:round;stroke-miterlimit:4;stroke-dasharray:none;stroke-dashoffset:15;stroke-opacity:1"
   d="m 108.56921,-35.5973 c 0,0 4.0703,2.25408 6.29687,2.236764 2.13342,-0.01659 5.9996,-2.236764 5.9996,-2.236764 0,0 -2.54975,4.091794 -2.52235,6.379246 0.0258,2.157402 2.52235,5.957477 2.52235,5.957477 0,0 -3.74174,-2.284205 -5.83294,-2.319726 -2.28788,-0.03886 -6.46353,2.319726 -6.46353,2.319726 0,0 2.34022,-3.653244 2.39098,-5.720233 0.0576,-2.345259 -2.39098,-6.61649 -2.39098,-6.61649 z"
   id="rect1173"
   inkscape:connector-curvature="0"
   sodipodi:nodetypes="cacacacac"
   inkscape:original-d="m 108.66921,-35.577171 c 0,0 4.0703,2.246724 6.29687,2.229465 2.13342,-0.01654 5.9996,-2.229465 5.9996,-2.229465 0,0 -2.54975,4.078441 -2.52235,6.358429 0.0258,2.150362 2.52235,5.938036 2.52235,5.938036 0,0 -3.74174,-2.276751 -5.83294,-2.312156 -2.28788,-0.03873 -6.46353,2.312156 -6.46353,2.312156 0,0 2.34022,-3.641322 2.39098,-5.701566 0.0576,-2.337606 -2.39098,-6.594899 -2.39098,-6.594899 z"
   inkscape:path-effect="#path-effect1176" /><path
   transform="matrix(0.25088173,0.25088173,-0.25088173,0.25088173,65.045669,35.670884)"
   style="opacity:1;fill:#ffffff;fill-opacity:1;stroke:#f8ffff;stroke-width:0.5;stroke-linejoin:round;stroke-miterlimit:4;stroke-dasharray:none;stroke-dashoffset:15;stroke-opacity:1"
   d="m 108.56921,-35.597299 c 0,0 4.0703,2.254079 6.29687,2.236764 2.13342,-0.01659 5.9996,-2.236764 5.9996,-2.236764 0,0 -2.54975,4.091793 -2.52235,6.379246 0.0258,2.157402 2.52235,5.957476 2.52235,5.957476 0,0 -3.74174,-2.284205 -5.83294,-2.319726 -2.28788,-0.03886 -6.46353,2.319726 -6.46353,2.319726 0,0 2.34022,-3.653243 2.39098,-5.720232 0.0576,-2.345259 -2.39098,-6.61649 -2.39098,-6.61649 z"
   id="rect1173-7"
   inkscape:connector-curvature="0"
   sodipodi:nodetypes="cacacacac"
   inkscape:original-d="m 108.66921,-35.577171 c 0,0 4.0703,2.246724 6.29687,2.229465 2.13342,-0.01654 5.9996,-2.229465 5.9996,-2.229465 0,0 -2.54975,4.078441 -2.52235,6.358429 0.0258,2.150362 2.52235,5.938036 2.52235,5.938036 0,0 -3.74174,-2.276751 -5.83294,-2.312156 -2.28788,-0.03873 -6.46353,2.312156 -6.46353,2.312156 0,0 2.34022,-3.641322 2.39098,-5.701566 0.0576,-2.337606 -2.39098,-6.594899 -2.39098,-6.594899 z"
   inkscape:path-effect="#path-effect1176-3" /><path
   transform="matrix(0.49973177,0.49973177,-0.49973177,0.49973177,39.789733,22.329188)"
   style="opacity:1;fill:#ffffff;fill-opacity:1;stroke:#f8ffff;stroke-width:0.5;stroke-linejoin:round;stroke-miterlimit:4;stroke-dasharray:none;stroke-dashoffset:15;stroke-opacity:1"
   d="m 108.56921,-35.597299 c 0,0 4.0703,2.254079 6.29687,2.236764 2.13342,-0.01659 5.9996,-2.236764 5.9996,-2.236764 0,0 -2.54975,4.091793 -2.52235,6.379246 0.0258,2.157402 2.52235,5.957476 2.52235,5.957476 0,0 -3.74174,-2.284205 -5.83294,-2.319726 -2.28788,-0.03886 -6.46353,2.319726 -6.46353,2.319726 0,0 2.34022,-3.653243 2.39098,-5.720232 0.0576,-2.345259 -2.39098,-6.61649 -2.39098,-6.61649 z"
   id="rect1173-7-3"
   inkscape:connector-curvature="0"
   sodipodi:nodetypes="cacacacac"
   inkscape:original-d="m 108.66921,-35.577171 c 0,0 4.0703,2.246724 6.29687,2.229465 2.13342,-0.01654 5.9996,-2.229465 5.9996,-2.229465 0,0 -2.54975,4.078441 -2.52235,6.358429 0.0258,2.150362 2.52235,5.938036 2.52235,5.938036 0,0 -3.74174,-2.276751 -5.83294,-2.312156 -2.28788,-0.03873 -6.46353,2.312156 -6.46353,2.312156 0,0 2.34022,-3.641322 2.39098,-5.701566 0.0576,-2.337606 -2.39098,-6.594899 -2.39098,-6.594899 z"
   inkscape:path-effect="#path-effect1176-3-1" /><path
   transform="matrix(0.6407468,0.6407468,-0.6407468,0.6407468,34.281743,4.7320353)"
   style="opacity:1;fill:#ffffff;fill-opacity:1;stroke:#f8ffff;stroke-width:0.5;stroke-linejoin:round;stroke-miterlimit:4;stroke-dasharray:none;stroke-dashoffset:15;stroke-opacity:1"
   d="m 108.56921,-35.597299 c 0,0 4.0703,2.254079 6.29687,2.236764 2.13342,-0.01659 5.9996,-2.236764 5.9996,-2.236764 0,0 -2.54975,4.091793 -2.52235,6.379246 0.0258,2.157402 2.52235,5.957476 2.52235,5.957476 0,0 -3.74174,-2.284205 -5.83294,-2.319726 -2.28788,-0.03886 -6.46353,2.319726 -6.46353,2.319726 0,0 2.34022,-3.653243 2.39098,-5.720232 0.0576,-2.345259 -2.39098,-6.61649 -2.39098,-6.61649 z"
   id="rect1173-7-3-0"
   inkscape:connector-curvature="0"
   sodipodi:nodetypes="cacacacac"
   inkscape:original-d="m 108.66921,-35.577171 c 0,0 4.0703,2.246724 6.29687,2.229465 2.13342,-0.01654 5.9996,-2.229465 5.9996,-2.229465 0,0 -2.54975,4.078441 -2.52235,6.358429 0.0258,2.150362 2.52235,5.938036 2.52235,5.938036 0,0 -3.74174,-2.276751 -5.83294,-2.312156 -2.28788,-0.03873 -6.46353,2.312156 -6.46353,2.312156 0,0 2.34022,-3.641322 2.39098,-5.701566 0.0576,-2.337606 -2.39098,-6.594899 -2.39098,-6.594899 z"
   inkscape:path-effect="#path-effect1176-3-1-8" /><path
   style="fill:none;stroke:#ffffff;stroke-width:1px;stroke-linecap:butt;stroke-linejoin:miter;stroke-opacity:1"
   d="M 60.938711,64.954364 H 73.423715"
   id="path1167-9"
   inkscape:connector-curvature="0" /><path
   style="fill:none;stroke:#ffffff;stroke-width:1px;stroke-linecap:butt;stroke-linejoin:miter;stroke-opacity:1"
   d="M 68.667523,68.224246 H 81.152527"
   id="path1167-9-7"
   inkscape:connector-curvature="0" /><path
   style="fill:none;stroke:#ffffff;stroke-width:1px;stroke-linecap:butt;stroke-linejoin:miter;stroke-opacity:1"
   d="M 68.667523,60.792696 H 81.152527"
   id="path1167-9-7-9"
   inkscape:connector-curvature="0" /><path
   style="fill:none;stroke:#ffffff;stroke-width:1px;stroke-linecap:butt;stroke-linejoin:miter;stroke-opacity:1"
   d="M 77.882645,56.333766 H 90.367649"
   id="path1167-9-7-9-3"
   inkscape:connector-curvature="0" /></svg>
